<svg xmlns="http://www.w3.org/2000/svg" width="25" height="20.563" viewBox="0 0 25 20.563">
  <path id="ico_crown" d="M20.782,20.563H4.375a.785.785,0,0,1-.781-.633L1.875,8.225a.8.8,0,0,1,0-.348,1.551,1.551,0,0,1-.313.032,1.582,1.582,0,0,1,0-3.164A1.571,1.571,0,0,1,3.125,6.327a1.589,1.589,0,0,1-.316.954.778.778,0,0,1,.316.153L7.344,10.6a.771.771,0,0,0,.615.081.781.781,0,0,0,.479-.4l2.657-5.536.765-1.721a1.563,1.563,0,1,1,1.282,0l.765,1.721,2.656,5.378a.787.787,0,0,0,.48.4.773.773,0,0,0,.614-.081l4.376-3.006a.781.781,0,0,1,.19-.113,1.588,1.588,0,0,1-.347-.994,1.563,1.563,0,1,1,1.562,1.582q-.077,0-.151-.007a.8.8,0,0,1,0,.323L21.563,19.931a.785.785,0,0,1-.766.633Z" fill="#d8c174"/>
</svg>
