<svg xmlns="http://www.w3.org/2000/svg" width="25.001" height="20.563" viewBox="0 0 25.001 20.563">
  <path id="ico_crown" d="M20.782,20.563H4.375a.783.783,0,0,1-.781-.633L1.875,8.225a.8.8,0,0,1,0-.347,1.55,1.55,0,0,1-.313.032,1.582,1.582,0,0,1,0-3.164A1.586,1.586,0,0,1,2.809,7.281a.777.777,0,0,1,.316.153L7.344,10.6a.771.771,0,0,0,.614.081.782.782,0,0,0,.479-.4l2.657-5.536.765-1.721a1.563,1.563,0,1,1,1.283,0l.765,1.721,2.657,5.378a.781.781,0,0,0,.479.4.772.772,0,0,0,.614-.081l4.375-3.006a.779.779,0,0,1,.191-.113,1.559,1.559,0,1,1,1.216.588q-.077,0-.152-.007a.8.8,0,0,1,0,.323L21.563,19.93a.783.783,0,0,1-.765.633Z" fill="#d89774"/>
</svg>
